# xmcd
#
# Track frame offsets:
#	150
#	13395
#	31542
#	48345
#	74600
#	95825
#	111879
#	128152
#	139555
#	153957
#	175630
#
# Disc length: 2525 seconds
# Revision: 1
# Processed by: cddbd v1.5.2PL0 Copyright (c) Steve Scherf et al.
# Submitted via: dBpowerAMP V12.0
#
DISCID=8e09db0b
DTITLE=Alby Pool and No City Limits - One Good Reason
DYEAR=1999
DGENRE=Country
TTITLE0=Satisfied Heart
TTITLE1=Fast Train
TTITLE2=This Mood
TTITLE3=Cookin'
TTITLE4=One Good Reason
TTITLE5=You Can't Take Away These Memories
TTITLE6=Road Crew Anthem
TTITLE7=Take Me Back Home
TTITLE8=The Only Kinda Dancin'
TTITLE9=Moonshine Bill
TTITLE10=Still Cookin'
EXTD=
EXTT0=
EXTT1=
EXTT2=
EXTT3=
EXTT4=
EXTT5=
EXTT6=
EXTT7=
EXTT8=
EXTT9=
EXTT10=
PLAYORDER=
